<mxfile host="app.diagrams.net" modified="2021-11-24T10:57:10.570Z" agent="5.0 (Windows)" etag="uzTW2sPGhj9IEJJqHOcn" version="15.7.4" type="github">
  <diagram id="uV-LiDX_3luVWXQ_N6UU" name="Page-1">
    <mxGraphModel dx="1430" dy="253" grid="1" gridSize="10" guides="1" tooltips="1" connect="1" arrows="1" fold="1" page="1" pageScale="1" pageWidth="850" pageHeight="1100" math="0" shadow="0">
      <root>
        <mxCell id="0" />
        <mxCell id="1" parent="0" />
        <mxCell id="5j0TbUP-GXuLhpRAQQWD-1" value="s3n:Algorithm" style="rounded=1;whiteSpace=wrap;html=1;fontSize=15;" vertex="1" parent="1">
          <mxGeometry x="10" y="220" width="100" height="30" as="geometry" />
        </mxCell>
        <mxCell id="5j0TbUP-GXuLhpRAQQWD-2" value=":hasTitle" style="edgeStyle=orthogonalEdgeStyle;rounded=0;orthogonalLoop=1;jettySize=auto;html=1;exitX=0.5;exitY=1;exitDx=0;exitDy=0;fontSize=15;entryX=1;entryY=0.5;entryDx=0;entryDy=0;" edge="1" parent="1" source="5j0TbUP-GXuLhpRAQQWD-15" target="5j0TbUP-GXuLhpRAQQWD-20">
          <mxGeometry x="0.6345" relative="1" as="geometry">
            <mxPoint x="-90" y="495" as="targetPoint" />
            <Array as="points">
              <mxPoint x="60" y="538" />
            </Array>
            <mxPoint as="offset" />
          </mxGeometry>
        </mxCell>
        <mxCell id="5j0TbUP-GXuLhpRAQQWD-3" value=":dataset" style="edgeStyle=orthogonalEdgeStyle;rounded=0;orthogonalLoop=1;jettySize=auto;html=1;exitX=0.5;exitY=1;exitDx=0;exitDy=0;entryX=1;entryY=0.5;entryDx=0;entryDy=0;fontSize=15;" edge="1" parent="1" source="5j0TbUP-GXuLhpRAQQWD-15" target="5j0TbUP-GXuLhpRAQQWD-21">
          <mxGeometry x="0.6259" relative="1" as="geometry">
            <mxPoint x="60" y="740" as="targetPoint" />
            <mxPoint as="offset" />
          </mxGeometry>
        </mxCell>
        <mxCell id="5j0TbUP-GXuLhpRAQQWD-5" value=":inputLayer" style="edgeStyle=orthogonalEdgeStyle;rounded=0;orthogonalLoop=1;jettySize=auto;html=1;exitX=0.5;exitY=1;exitDx=0;exitDy=0;entryX=1;entryY=0.25;entryDx=0;entryDy=0;fontSize=15;" edge="1" parent="1" source="5j0TbUP-GXuLhpRAQQWD-15" target="5j0TbUP-GXuLhpRAQQWD-17">
          <mxGeometry x="0.1351" relative="1" as="geometry">
            <mxPoint as="offset" />
          </mxGeometry>
        </mxCell>
        <mxCell id="5j0TbUP-GXuLhpRAQQWD-6" value=":outputLayer" style="edgeStyle=orthogonalEdgeStyle;rounded=0;orthogonalLoop=1;jettySize=auto;html=1;exitX=0.5;exitY=1;exitDx=0;exitDy=0;entryX=1;entryY=0.5;entryDx=0;entryDy=0;fontSize=15;" edge="1" parent="1" source="5j0TbUP-GXuLhpRAQQWD-15" target="5j0TbUP-GXuLhpRAQQWD-17">
          <mxGeometry x="0.2" relative="1" as="geometry">
            <mxPoint x="-250" y="400" as="targetPoint" />
            <mxPoint as="offset" />
          </mxGeometry>
        </mxCell>
        <mxCell id="5j0TbUP-GXuLhpRAQQWD-7" value=":middleLayer" style="edgeStyle=orthogonalEdgeStyle;rounded=0;orthogonalLoop=1;jettySize=auto;html=1;exitX=0.5;exitY=1;exitDx=0;exitDy=0;entryX=1;entryY=0.75;entryDx=0;entryDy=0;fontSize=15;" edge="1" parent="1" source="5j0TbUP-GXuLhpRAQQWD-15" target="5j0TbUP-GXuLhpRAQQWD-17">
          <mxGeometry x="0.2558" relative="1" as="geometry">
            <mxPoint as="offset" />
          </mxGeometry>
        </mxCell>
        <mxCell id="5j0TbUP-GXuLhpRAQQWD-8" value=":hasDescription" style="edgeStyle=orthogonalEdgeStyle;rounded=0;orthogonalLoop=1;jettySize=auto;html=1;exitX=0.5;exitY=1;exitDx=0;exitDy=0;entryX=0;entryY=0.5;entryDx=0;entryDy=0;fontSize=15;" edge="1" parent="1" source="5j0TbUP-GXuLhpRAQQWD-15" target="5j0TbUP-GXuLhpRAQQWD-22">
          <mxGeometry x="0.234" relative="1" as="geometry">
            <mxPoint as="offset" />
          </mxGeometry>
        </mxCell>
        <mxCell id="5j0TbUP-GXuLhpRAQQWD-9" value=":hasMultiplyAccumulateOps" style="edgeStyle=orthogonalEdgeStyle;rounded=0;orthogonalLoop=1;jettySize=auto;html=1;exitX=0.5;exitY=1;exitDx=0;exitDy=0;entryX=0;entryY=0.5;entryDx=0;entryDy=0;fontSize=15;" edge="1" parent="1" source="5j0TbUP-GXuLhpRAQQWD-15" target="5j0TbUP-GXuLhpRAQQWD-18">
          <mxGeometry x="0.3464" relative="1" as="geometry">
            <mxPoint as="offset" />
          </mxGeometry>
        </mxCell>
        <mxCell id="5j0TbUP-GXuLhpRAQQWD-10" value=":created" style="edgeStyle=orthogonalEdgeStyle;rounded=0;orthogonalLoop=1;jettySize=auto;html=1;exitX=0.5;exitY=1;exitDx=0;exitDy=0;entryX=0;entryY=0.5;entryDx=0;entryDy=0;fontSize=15;" edge="1" parent="1" source="5j0TbUP-GXuLhpRAQQWD-15" target="5j0TbUP-GXuLhpRAQQWD-19">
          <mxGeometry x="0.4724" relative="1" as="geometry">
            <mxPoint as="offset" />
          </mxGeometry>
        </mxCell>
        <mxCell id="5j0TbUP-GXuLhpRAQQWD-11" value="s3n:hasProcedureFeature" style="edgeStyle=orthogonalEdgeStyle;rounded=0;orthogonalLoop=1;jettySize=auto;html=1;exitX=0.5;exitY=1;exitDx=0;exitDy=0;fontSize=15;endArrow=classic;endFill=1;entryX=1;entryY=0.5;entryDx=0;entryDy=0;" edge="1" parent="1" source="5j0TbUP-GXuLhpRAQQWD-15" target="5j0TbUP-GXuLhpRAQQWD-30">
          <mxGeometry x="0.5707" relative="1" as="geometry">
            <mxPoint x="190" y="820" as="targetPoint" />
            <mxPoint as="offset" />
          </mxGeometry>
        </mxCell>
        <mxCell id="5j0TbUP-GXuLhpRAQQWD-12" style="edgeStyle=orthogonalEdgeStyle;rounded=0;orthogonalLoop=1;jettySize=auto;html=1;exitX=0.5;exitY=0;exitDx=0;exitDy=0;entryX=0.5;entryY=1;entryDx=0;entryDy=0;fontSize=15;endArrow=block;endFill=1;" edge="1" parent="1" source="5j0TbUP-GXuLhpRAQQWD-15" target="5j0TbUP-GXuLhpRAQQWD-1">
          <mxGeometry relative="1" as="geometry" />
        </mxCell>
        <mxCell id="5j0TbUP-GXuLhpRAQQWD-13" value="ssn:hasInput " style="edgeStyle=orthogonalEdgeStyle;rounded=0;orthogonalLoop=1;jettySize=auto;html=1;exitX=0.5;exitY=1;exitDx=0;exitDy=0;entryX=0;entryY=0.5;entryDx=0;entryDy=0;endArrow=block;endFill=1;" edge="1" parent="1" source="5j0TbUP-GXuLhpRAQQWD-15" target="5j0TbUP-GXuLhpRAQQWD-36">
          <mxGeometry x="0.6825" relative="1" as="geometry">
            <mxPoint as="offset" />
          </mxGeometry>
        </mxCell>
        <mxCell id="5j0TbUP-GXuLhpRAQQWD-14" value="ssn:hasOutput" style="edgeStyle=orthogonalEdgeStyle;rounded=0;orthogonalLoop=1;jettySize=auto;html=1;exitX=0.5;exitY=1;exitDx=0;exitDy=0;entryX=0;entryY=0.5;entryDx=0;entryDy=0;endArrow=block;endFill=1;" edge="1" parent="1" source="5j0TbUP-GXuLhpRAQQWD-15" target="5j0TbUP-GXuLhpRAQQWD-38">
          <mxGeometry x="0.7489" relative="1" as="geometry">
            <mxPoint as="offset" />
          </mxGeometry>
        </mxCell>
        <mxCell id="5j0TbUP-GXuLhpRAQQWD-15" value=":NeuralNetwork" style="rounded=1;whiteSpace=wrap;html=1;fontSize=15;" vertex="1" parent="1">
          <mxGeometry y="300" width="120" height="30" as="geometry" />
        </mxCell>
        <mxCell id="5j0TbUP-GXuLhpRAQQWD-17" value=":Layer" style="rounded=1;whiteSpace=wrap;html=1;fontSize=15;" vertex="1" parent="1">
          <mxGeometry x="-160" y="350" width="70" height="60" as="geometry" />
        </mxCell>
        <mxCell id="5j0TbUP-GXuLhpRAQQWD-18" value="schema:Number" style="rounded=1;whiteSpace=wrap;html=1;fontSize=15;" vertex="1" parent="1">
          <mxGeometry x="275" y="430" width="120" height="32.5" as="geometry" />
        </mxCell>
        <mxCell id="5j0TbUP-GXuLhpRAQQWD-19" value="schema:Date" style="rounded=1;whiteSpace=wrap;html=1;fontSize=15;" vertex="1" parent="1">
          <mxGeometry x="200" y="478.25" width="100" height="30" as="geometry" />
        </mxCell>
        <mxCell id="5j0TbUP-GXuLhpRAQQWD-20" value="schema:Text" style="rounded=1;whiteSpace=wrap;html=1;fontSize=15;" vertex="1" parent="1">
          <mxGeometry x="-150" y="523.25" width="100" height="30" as="geometry" />
        </mxCell>
        <mxCell id="5j0TbUP-GXuLhpRAQQWD-21" value="schema:url" style="rounded=1;whiteSpace=wrap;html=1;fontSize=15;" vertex="1" parent="1">
          <mxGeometry x="-150" y="478.25" width="100" height="30" as="geometry" />
        </mxCell>
        <mxCell id="5j0TbUP-GXuLhpRAQQWD-22" value="schema:Text" style="rounded=1;whiteSpace=wrap;html=1;fontSize=15;" vertex="1" parent="1">
          <mxGeometry x="230" y="380" width="90" height="30" as="geometry" />
        </mxCell>
        <mxCell id="5j0TbUP-GXuLhpRAQQWD-23" style="edgeStyle=orthogonalEdgeStyle;rounded=0;orthogonalLoop=1;jettySize=auto;html=1;exitX=0.5;exitY=1;exitDx=0;exitDy=0;fontSize=15;" edge="1" parent="1">
          <mxGeometry relative="1" as="geometry">
            <mxPoint x="394" y="692.75" as="sourcePoint" />
            <mxPoint x="394" y="692.75" as="targetPoint" />
          </mxGeometry>
        </mxCell>
        <mxCell id="5j0TbUP-GXuLhpRAQQWD-24" value="" style="rounded=1;whiteSpace=wrap;html=1;fontSize=16;" vertex="1" parent="1">
          <mxGeometry x="299" y="50" width="50" height="29" as="geometry" />
        </mxCell>
        <mxCell id="5j0TbUP-GXuLhpRAQQWD-25" value="rdfs:class" style="text;html=1;align=center;verticalAlign=middle;resizable=0;points=[];autosize=1;strokeColor=none;fontSize=16;" vertex="1" parent="1">
          <mxGeometry x="173" y="54.5" width="80" height="20" as="geometry" />
        </mxCell>
        <mxCell id="5j0TbUP-GXuLhpRAQQWD-26" value="rdf:property" style="text;html=1;align=center;verticalAlign=middle;resizable=0;points=[];autosize=1;strokeColor=none;fontSize=16;" vertex="1" parent="1">
          <mxGeometry x="170" y="84.5" width="100" height="20" as="geometry" />
        </mxCell>
        <mxCell id="5j0TbUP-GXuLhpRAQQWD-27" value="" style="endArrow=classic;html=1;fontSize=16;" edge="1" parent="1">
          <mxGeometry width="50" height="50" relative="1" as="geometry">
            <mxPoint x="299" y="94.15999999999997" as="sourcePoint" />
            <mxPoint x="349" y="94.15999999999997" as="targetPoint" />
            <Array as="points">
              <mxPoint x="309" y="94.15999999999997" />
            </Array>
          </mxGeometry>
        </mxCell>
        <mxCell id="5j0TbUP-GXuLhpRAQQWD-28" value="" style="endArrow=block;html=1;fontSize=16;endFill=1;" edge="1" parent="1">
          <mxGeometry width="50" height="50" relative="1" as="geometry">
            <mxPoint x="299" y="124.16000000000008" as="sourcePoint" />
            <mxPoint x="349" y="124.66000000000008" as="targetPoint" />
          </mxGeometry>
        </mxCell>
        <mxCell id="5j0TbUP-GXuLhpRAQQWD-29" value="ssn-system:inCondition" style="edgeStyle=orthogonalEdgeStyle;rounded=0;orthogonalLoop=1;jettySize=auto;html=1;exitX=0.5;exitY=1;exitDx=0;exitDy=0;entryX=0;entryY=0.5;entryDx=0;entryDy=0;fontSize=15;endArrow=classic;endFill=1;" edge="1" parent="1" source="5j0TbUP-GXuLhpRAQQWD-30" target="5j0TbUP-GXuLhpRAQQWD-31">
          <mxGeometry x="-0.4923" relative="1" as="geometry">
            <mxPoint as="offset" />
            <Array as="points">
              <mxPoint x="-240" y="742.87" />
            </Array>
          </mxGeometry>
        </mxCell>
        <mxCell id="5j0TbUP-GXuLhpRAQQWD-30" value="s3n:ProcedureFeature" style="rounded=1;whiteSpace=wrap;html=1;fontSize=15;" vertex="1" parent="1">
          <mxGeometry x="-320" y="680" width="160" height="32.25" as="geometry" />
        </mxCell>
        <mxCell id="5j0TbUP-GXuLhpRAQQWD-31" value="s3n:Memory" style="rounded=1;whiteSpace=wrap;html=1;fontSize=15;" vertex="1" parent="1">
          <mxGeometry x="-140" y="727.87" width="120" height="30" as="geometry" />
        </mxCell>
        <mxCell id="5j0TbUP-GXuLhpRAQQWD-32" value="rdfs:subClassOf" style="text;html=1;align=center;verticalAlign=middle;resizable=0;points=[];autosize=1;strokeColor=none;fontSize=15;" vertex="1" parent="1">
          <mxGeometry x="173" y="114.5" width="120" height="20" as="geometry" />
        </mxCell>
        <mxCell id="5j0TbUP-GXuLhpRAQQWD-33" value="ssn:Input" style="rounded=1;whiteSpace=wrap;html=1;fontSize=15;" vertex="1" parent="1">
          <mxGeometry x="290" y="570" width="90" height="30" as="geometry" />
        </mxCell>
        <mxCell id="5j0TbUP-GXuLhpRAQQWD-34" value="ssn:Output" style="rounded=1;whiteSpace=wrap;html=1;fontSize=15;" vertex="1" parent="1">
          <mxGeometry x="289" y="678.88" width="90" height="30" as="geometry" />
        </mxCell>
        <mxCell id="5j0TbUP-GXuLhpRAQQWD-35" style="edgeStyle=orthogonalEdgeStyle;rounded=0;orthogonalLoop=1;jettySize=auto;html=1;exitX=1;exitY=0.5;exitDx=0;exitDy=0;entryX=0;entryY=0.5;entryDx=0;entryDy=0;endArrow=block;endFill=1;" edge="1" parent="1" source="5j0TbUP-GXuLhpRAQQWD-36" target="5j0TbUP-GXuLhpRAQQWD-33">
          <mxGeometry relative="1" as="geometry" />
        </mxCell>
        <mxCell id="5j0TbUP-GXuLhpRAQQWD-36" value=":NetworkInput" style="rounded=1;whiteSpace=wrap;html=1;fontSize=15;" vertex="1" parent="1">
          <mxGeometry x="160" y="570" width="110" height="30" as="geometry" />
        </mxCell>
        <mxCell id="5j0TbUP-GXuLhpRAQQWD-37" style="edgeStyle=orthogonalEdgeStyle;rounded=0;orthogonalLoop=1;jettySize=auto;html=1;exitX=1;exitY=0.5;exitDx=0;exitDy=0;entryX=0;entryY=0.5;entryDx=0;entryDy=0;endArrow=block;endFill=1;" edge="1" parent="1" source="5j0TbUP-GXuLhpRAQQWD-38" target="5j0TbUP-GXuLhpRAQQWD-34">
          <mxGeometry relative="1" as="geometry">
            <Array as="points">
              <mxPoint x="269" y="693.75" />
            </Array>
          </mxGeometry>
        </mxCell>
        <mxCell id="5j0TbUP-GXuLhpRAQQWD-38" value=":NetworkOutput" style="rounded=1;whiteSpace=wrap;html=1;fontSize=15;" vertex="1" parent="1">
          <mxGeometry x="159" y="680" width="110" height="30" as="geometry" />
        </mxCell>
        <mxCell id="5j0TbUP-GXuLhpRAQQWD-39" style="edgeStyle=orthogonalEdgeStyle;rounded=0;orthogonalLoop=1;jettySize=auto;html=1;exitX=0;exitY=0.5;exitDx=0;exitDy=0;entryX=1;entryY=0.5;entryDx=0;entryDy=0;" edge="1" parent="1" target="5j0TbUP-GXuLhpRAQQWD-47">
          <mxGeometry relative="1" as="geometry">
            <Array as="points">
              <mxPoint x="-170" y="379.5" />
              <mxPoint x="-170" y="299.5" />
            </Array>
            <mxPoint x="-160" y="380" as="sourcePoint" />
          </mxGeometry>
        </mxCell>
        <mxCell id="5j0TbUP-GXuLhpRAQQWD-40" value=":shapeIn" style="edgeLabel;html=1;align=center;verticalAlign=middle;resizable=0;points=[];" vertex="1" connectable="0" parent="5j0TbUP-GXuLhpRAQQWD-39">
          <mxGeometry x="0.41" relative="1" as="geometry">
            <mxPoint x="-4" as="offset" />
          </mxGeometry>
        </mxCell>
        <mxCell id="5j0TbUP-GXuLhpRAQQWD-41" value="" style="edgeStyle=orthogonalEdgeStyle;rounded=0;orthogonalLoop=1;jettySize=auto;html=1;exitX=0;exitY=0.5;exitDx=0;exitDy=0;entryX=1;entryY=0.5;entryDx=0;entryDy=0;" edge="1" parent="1" target="5j0TbUP-GXuLhpRAQQWD-48">
          <mxGeometry x="0.5385" relative="1" as="geometry">
            <Array as="points">
              <mxPoint x="-170" y="379.5" />
              <mxPoint x="-170" y="349.5" />
            </Array>
            <mxPoint as="offset" />
            <mxPoint x="-160" y="380" as="sourcePoint" />
          </mxGeometry>
        </mxCell>
        <mxCell id="5j0TbUP-GXuLhpRAQQWD-42" value=":shapeOut" style="edgeLabel;html=1;align=center;verticalAlign=middle;resizable=0;points=[];" vertex="1" connectable="0" parent="5j0TbUP-GXuLhpRAQQWD-41">
          <mxGeometry x="0.287" relative="1" as="geometry">
            <mxPoint as="offset" />
          </mxGeometry>
        </mxCell>
        <mxCell id="5j0TbUP-GXuLhpRAQQWD-43" style="edgeStyle=orthogonalEdgeStyle;rounded=0;orthogonalLoop=1;jettySize=auto;html=1;exitX=0;exitY=0.5;exitDx=0;exitDy=0;entryX=1;entryY=0.5;entryDx=0;entryDy=0;" edge="1" parent="1" target="5j0TbUP-GXuLhpRAQQWD-49">
          <mxGeometry relative="1" as="geometry">
            <Array as="points">
              <mxPoint x="-170" y="379.5" />
              <mxPoint x="-170" y="405.5" />
            </Array>
            <mxPoint x="-160" y="380" as="sourcePoint" />
          </mxGeometry>
        </mxCell>
        <mxCell id="5j0TbUP-GXuLhpRAQQWD-44" value=":isTrainable" style="edgeLabel;html=1;align=center;verticalAlign=middle;resizable=0;points=[];" vertex="1" connectable="0" parent="5j0TbUP-GXuLhpRAQQWD-43">
          <mxGeometry x="0.2286" y="1" relative="1" as="geometry">
            <mxPoint as="offset" />
          </mxGeometry>
        </mxCell>
        <mxCell id="5j0TbUP-GXuLhpRAQQWD-45" style="edgeStyle=orthogonalEdgeStyle;rounded=0;orthogonalLoop=1;jettySize=auto;html=1;exitX=0;exitY=0.5;exitDx=0;exitDy=0;" edge="1" parent="1" target="5j0TbUP-GXuLhpRAQQWD-50">
          <mxGeometry relative="1" as="geometry">
            <mxPoint x="-260" y="460.5" as="targetPoint" />
            <Array as="points">
              <mxPoint x="-170" y="380" />
              <mxPoint x="-170" y="452" />
            </Array>
            <mxPoint x="-160" y="380" as="sourcePoint" />
          </mxGeometry>
        </mxCell>
        <mxCell id="5j0TbUP-GXuLhpRAQQWD-46" value=":hasType" style="edgeLabel;html=1;align=center;verticalAlign=middle;resizable=0;points=[];" vertex="1" connectable="0" parent="5j0TbUP-GXuLhpRAQQWD-45">
          <mxGeometry x="0.479" y="1" relative="1" as="geometry">
            <mxPoint x="2" y="-3" as="offset" />
          </mxGeometry>
        </mxCell>
        <mxCell id="5j0TbUP-GXuLhpRAQQWD-47" value="schema:Text" style="rounded=1;whiteSpace=wrap;html=1;fontSize=15;" vertex="1" parent="1">
          <mxGeometry x="-370" y="284.5" width="120" height="30" as="geometry" />
        </mxCell>
        <mxCell id="5j0TbUP-GXuLhpRAQQWD-48" value="schema:Text" style="rounded=1;whiteSpace=wrap;html=1;fontSize=15;" vertex="1" parent="1">
          <mxGeometry x="-370" y="334.5" width="120" height="30" as="geometry" />
        </mxCell>
        <mxCell id="5j0TbUP-GXuLhpRAQQWD-49" value="schema:Boolean" style="rounded=1;whiteSpace=wrap;html=1;fontSize=15;" vertex="1" parent="1">
          <mxGeometry x="-410" y="390.5" width="120" height="30" as="geometry" />
        </mxCell>
        <mxCell id="5j0TbUP-GXuLhpRAQQWD-50" value="&lt;div&gt;:LayerType&lt;/div&gt;" style="rounded=1;whiteSpace=wrap;html=1;fontSize=15;" vertex="1" parent="1">
          <mxGeometry x="-370" y="434.5" width="120" height="30" as="geometry" />
        </mxCell>
        <mxCell id="5j0TbUP-GXuLhpRAQQWD-51" style="edgeStyle=orthogonalEdgeStyle;rounded=0;orthogonalLoop=1;jettySize=auto;html=1;exitX=1;exitY=0.5;exitDx=0;exitDy=0;entryX=0.5;entryY=1;entryDx=0;entryDy=0;endArrow=block;endFill=1;" edge="1" parent="1" source="5j0TbUP-GXuLhpRAQQWD-52" target="5j0TbUP-GXuLhpRAQQWD-50">
          <mxGeometry relative="1" as="geometry">
            <mxPoint x="-310" y="546.8699999999999" as="targetPoint" />
            <Array as="points">
              <mxPoint x="-310" y="493" />
            </Array>
          </mxGeometry>
        </mxCell>
        <mxCell id="5j0TbUP-GXuLhpRAQQWD-52" value="&lt;div&gt;:fullyConnected&lt;/div&gt;" style="rounded=1;whiteSpace=wrap;html=1;fontSize=15;" vertex="1" parent="1">
          <mxGeometry x="-450" y="481.88" width="120" height="30" as="geometry" />
        </mxCell>
        <mxCell id="5j0TbUP-GXuLhpRAQQWD-53" style="edgeStyle=orthogonalEdgeStyle;rounded=0;orthogonalLoop=1;jettySize=auto;html=1;exitX=1;exitY=0.5;exitDx=0;exitDy=0;endArrow=block;endFill=1;entryX=0.5;entryY=1;entryDx=0;entryDy=0;" edge="1" parent="1" source="5j0TbUP-GXuLhpRAQQWD-54" target="5j0TbUP-GXuLhpRAQQWD-50">
          <mxGeometry relative="1" as="geometry">
            <mxPoint x="-310" y="547.37" as="targetPoint" />
            <Array as="points">
              <mxPoint x="-310" y="528" />
            </Array>
          </mxGeometry>
        </mxCell>
        <mxCell id="5j0TbUP-GXuLhpRAQQWD-54" value=":quantize" style="rounded=1;whiteSpace=wrap;html=1;fontSize=15;" vertex="1" parent="1">
          <mxGeometry x="-450" y="516.88" width="120" height="30" as="geometry" />
        </mxCell>
        <mxCell id="5j0TbUP-GXuLhpRAQQWD-55" style="edgeStyle=orthogonalEdgeStyle;rounded=0;orthogonalLoop=1;jettySize=auto;html=1;exitX=1;exitY=0.5;exitDx=0;exitDy=0;endArrow=block;endFill=1;" edge="1" parent="1" source="5j0TbUP-GXuLhpRAQQWD-56">
          <mxGeometry relative="1" as="geometry">
            <mxPoint x="-310" y="465" as="targetPoint" />
            <Array as="points">
              <mxPoint x="-310" y="563" />
            </Array>
          </mxGeometry>
        </mxCell>
        <mxCell id="5j0TbUP-GXuLhpRAQQWD-56" value=":depthwiseConv2D" style="rounded=1;whiteSpace=wrap;html=1;fontSize=15;" vertex="1" parent="1">
          <mxGeometry x="-460" y="552.38" width="130" height="30" as="geometry" />
        </mxCell>
        <mxCell id="5j0TbUP-GXuLhpRAQQWD-57" style="edgeStyle=orthogonalEdgeStyle;rounded=0;orthogonalLoop=1;jettySize=auto;html=1;exitX=1;exitY=0.5;exitDx=0;exitDy=0;endArrow=block;endFill=1;entryX=0.5;entryY=1;entryDx=0;entryDy=0;" edge="1" parent="1" source="5j0TbUP-GXuLhpRAQQWD-58" target="5j0TbUP-GXuLhpRAQQWD-50">
          <mxGeometry relative="1" as="geometry">
            <mxPoint x="-310" y="546.8699999999999" as="targetPoint" />
          </mxGeometry>
        </mxCell>
        <mxCell id="5j0TbUP-GXuLhpRAQQWD-58" value="......" style="rounded=1;whiteSpace=wrap;html=1;fontSize=15;" vertex="1" parent="1">
          <mxGeometry x="-450" y="590.13" width="120" height="30" as="geometry" />
        </mxCell>
        <mxCell id="5j0TbUP-GXuLhpRAQQWD-59" value=":InputInfo" style="endArrow=classic;html=1;rounded=0;exitX=0.5;exitY=1;exitDx=0;exitDy=0;entryX=0.5;entryY=0;entryDx=0;entryDy=0;" edge="1" parent="1" source="5j0TbUP-GXuLhpRAQQWD-36" target="5j0TbUP-GXuLhpRAQQWD-61">
          <mxGeometry width="50" height="50" relative="1" as="geometry">
            <mxPoint x="195" y="664" as="sourcePoint" />
            <mxPoint x="210" y="624" as="targetPoint" />
            <Array as="points">
              <mxPoint x="215" y="610" />
              <mxPoint x="140" y="610" />
            </Array>
          </mxGeometry>
        </mxCell>
        <mxCell id="5j0TbUP-GXuLhpRAQQWD-61" value="schema:Text" style="rounded=1;whiteSpace=wrap;html=1;fontSize=15;" vertex="1" parent="1">
          <mxGeometry x="95" y="626.13" width="90" height="30" as="geometry" />
        </mxCell>
        <mxCell id="5j0TbUP-GXuLhpRAQQWD-63" value=":OutputInfo" style="endArrow=classic;html=1;rounded=0;exitX=0.5;exitY=0;exitDx=0;exitDy=0;entryX=0.5;entryY=1;entryDx=0;entryDy=0;" edge="1" parent="1" target="5j0TbUP-GXuLhpRAQQWD-64" source="5j0TbUP-GXuLhpRAQQWD-38">
          <mxGeometry width="50" height="50" relative="1" as="geometry">
            <mxPoint x="214" y="718.88" as="sourcePoint" />
            <mxPoint x="214" y="742.88" as="targetPoint" />
            <Array as="points">
              <mxPoint x="214" y="668.88" />
              <mxPoint x="304" y="668.88" />
            </Array>
          </mxGeometry>
        </mxCell>
        <mxCell id="5j0TbUP-GXuLhpRAQQWD-64" value="schema:Text" style="rounded=1;whiteSpace=wrap;html=1;fontSize=15;" vertex="1" parent="1">
          <mxGeometry x="259" y="626.13" width="90" height="30" as="geometry" />
        </mxCell>
        <mxCell id="5j0TbUP-GXuLhpRAQQWD-66" value="schema:Number" style="rounded=1;whiteSpace=wrap;html=1;fontSize=15;" vertex="1" parent="1">
          <mxGeometry x="-390" y="224.5" width="120" height="30" as="geometry" />
        </mxCell>
        <mxCell id="5j0TbUP-GXuLhpRAQQWD-67" style="edgeStyle=orthogonalEdgeStyle;rounded=0;orthogonalLoop=1;jettySize=auto;html=1;exitX=0;exitY=0.5;exitDx=0;exitDy=0;entryX=1.018;entryY=0.457;entryDx=0;entryDy=0;entryPerimeter=0;" edge="1" parent="1" target="5j0TbUP-GXuLhpRAQQWD-66">
          <mxGeometry relative="1" as="geometry">
            <Array as="points">
              <mxPoint x="-160" y="330" />
              <mxPoint x="-160" y="244" />
              <mxPoint x="-248" y="244" />
            </Array>
            <mxPoint x="-150" y="330" as="sourcePoint" />
            <mxPoint x="-240" y="249.5" as="targetPoint" />
          </mxGeometry>
        </mxCell>
        <mxCell id="5j0TbUP-GXuLhpRAQQWD-68" value=":index" style="edgeLabel;html=1;align=center;verticalAlign=middle;resizable=0;points=[];" vertex="1" connectable="0" parent="5j0TbUP-GXuLhpRAQQWD-67">
          <mxGeometry x="0.41" relative="1" as="geometry">
            <mxPoint x="-4" as="offset" />
          </mxGeometry>
        </mxCell>
        <mxCell id="5j0TbUP-GXuLhpRAQQWD-69" value=":typeOfLayer" style="edgeLabel;html=1;align=center;verticalAlign=middle;resizable=0;points=[];" vertex="1" connectable="0" parent="1">
          <mxGeometry x="-268" y="15.499999999999886" as="geometry" />
        </mxCell>
        <mxCell id="5j0TbUP-GXuLhpRAQQWD-73" style="edgeStyle=orthogonalEdgeStyle;rounded=0;orthogonalLoop=1;jettySize=auto;html=1;exitX=1;exitY=0.5;exitDx=0;exitDy=0;endArrow=block;endFill=1;entryX=0.5;entryY=1;entryDx=0;entryDy=0;" edge="1" parent="1" source="5j0TbUP-GXuLhpRAQQWD-74">
          <mxGeometry relative="1" as="geometry">
            <mxPoint x="-280" y="142.38" as="targetPoint" />
            <Array as="points">
              <mxPoint x="-372" y="93.5" />
            </Array>
          </mxGeometry>
        </mxCell>
        <mxCell id="5j0TbUP-GXuLhpRAQQWD-74" value=":relu" style="rounded=1;whiteSpace=wrap;html=1;fontSize=15;" vertex="1" parent="1">
          <mxGeometry x="-512" y="82.38" width="120" height="30" as="geometry" />
        </mxCell>
        <mxCell id="5j0TbUP-GXuLhpRAQQWD-76" value=":tanh" style="rounded=1;whiteSpace=wrap;html=1;fontSize=15;" vertex="1" parent="1">
          <mxGeometry x="-512" y="117.88" width="120" height="30" as="geometry" />
        </mxCell>
        <mxCell id="5j0TbUP-GXuLhpRAQQWD-77" style="edgeStyle=orthogonalEdgeStyle;rounded=0;orthogonalLoop=1;jettySize=auto;html=1;exitX=1;exitY=0.5;exitDx=0;exitDy=0;endArrow=block;endFill=1;entryX=0.535;entryY=0.033;entryDx=0;entryDy=0;entryPerimeter=0;" edge="1" parent="1" source="5j0TbUP-GXuLhpRAQQWD-78" target="5j0TbUP-GXuLhpRAQQWD-79">
          <mxGeometry relative="1" as="geometry">
            <mxPoint x="-280" y="142.38" as="targetPoint" />
          </mxGeometry>
        </mxCell>
        <mxCell id="5j0TbUP-GXuLhpRAQQWD-78" value="......" style="rounded=1;whiteSpace=wrap;html=1;fontSize=15;" vertex="1" parent="1">
          <mxGeometry x="-512" y="155.63" width="120" height="30" as="geometry" />
        </mxCell>
        <mxCell id="5j0TbUP-GXuLhpRAQQWD-79" value="&lt;div&gt;:Activation&lt;/div&gt;" style="rounded=1;whiteSpace=wrap;html=1;fontSize=15;" vertex="1" parent="1">
          <mxGeometry x="-370" y="180" width="120" height="30" as="geometry" />
        </mxCell>
        <mxCell id="5j0TbUP-GXuLhpRAQQWD-80" style="edgeStyle=orthogonalEdgeStyle;rounded=0;orthogonalLoop=1;jettySize=auto;html=1;entryX=1;entryY=0.5;entryDx=0;entryDy=0;" edge="1" parent="1">
          <mxGeometry relative="1" as="geometry">
            <Array as="points">
              <mxPoint x="-345" y="380" />
              <mxPoint x="-345" y="366" />
              <mxPoint x="-475" y="366" />
              <mxPoint x="-475" y="367" />
            </Array>
            <mxPoint x="-160" y="380" as="sourcePoint" />
            <mxPoint x="-505" y="367.13" as="targetPoint" />
          </mxGeometry>
        </mxCell>
        <mxCell id="5j0TbUP-GXuLhpRAQQWD-81" value=":hasQuantization" style="edgeLabel;html=1;align=center;verticalAlign=middle;resizable=0;points=[];" vertex="1" connectable="0" parent="5j0TbUP-GXuLhpRAQQWD-80">
          <mxGeometry x="0.41" relative="1" as="geometry">
            <mxPoint x="-4" as="offset" />
          </mxGeometry>
        </mxCell>
        <mxCell id="5j0TbUP-GXuLhpRAQQWD-90" style="edgeStyle=orthogonalEdgeStyle;rounded=0;orthogonalLoop=1;jettySize=auto;html=1;exitX=1;exitY=0.5;exitDx=0;exitDy=0;endArrow=block;endFill=1;entryX=0.5;entryY=1;entryDx=0;entryDy=0;" edge="1" parent="1" source="5j0TbUP-GXuLhpRAQQWD-91">
          <mxGeometry relative="1" as="geometry">
            <mxPoint x="-535" y="322.88" as="targetPoint" />
            <Array as="points">
              <mxPoint x="-627" y="274" />
            </Array>
          </mxGeometry>
        </mxCell>
        <mxCell id="5j0TbUP-GXuLhpRAQQWD-91" value=":int8" style="rounded=1;whiteSpace=wrap;html=1;fontSize=15;" vertex="1" parent="1">
          <mxGeometry x="-767" y="262.88" width="120" height="30" as="geometry" />
        </mxCell>
        <mxCell id="5j0TbUP-GXuLhpRAQQWD-92" value=":int16" style="rounded=1;whiteSpace=wrap;html=1;fontSize=15;" vertex="1" parent="1">
          <mxGeometry x="-767" y="298.38" width="120" height="30" as="geometry" />
        </mxCell>
        <mxCell id="5j0TbUP-GXuLhpRAQQWD-93" style="edgeStyle=orthogonalEdgeStyle;rounded=0;orthogonalLoop=1;jettySize=auto;html=1;exitX=1;exitY=0.5;exitDx=0;exitDy=0;endArrow=block;endFill=1;entryX=0.535;entryY=0.033;entryDx=0;entryDy=0;entryPerimeter=0;" edge="1" parent="1" source="5j0TbUP-GXuLhpRAQQWD-94" target="5j0TbUP-GXuLhpRAQQWD-95">
          <mxGeometry relative="1" as="geometry">
            <mxPoint x="-535" y="322.88" as="targetPoint" />
          </mxGeometry>
        </mxCell>
        <mxCell id="5j0TbUP-GXuLhpRAQQWD-94" value="......" style="rounded=1;whiteSpace=wrap;html=1;fontSize=15;" vertex="1" parent="1">
          <mxGeometry x="-767" y="336.13" width="120" height="30" as="geometry" />
        </mxCell>
        <mxCell id="5j0TbUP-GXuLhpRAQQWD-95" value="&lt;div&gt;:Quantization&lt;/div&gt;" style="rounded=1;whiteSpace=wrap;html=1;fontSize=15;" vertex="1" parent="1">
          <mxGeometry x="-625" y="360.5" width="120" height="30" as="geometry" />
        </mxCell>
        <mxCell id="5j0TbUP-GXuLhpRAQQWD-97" style="edgeStyle=orthogonalEdgeStyle;rounded=0;orthogonalLoop=1;jettySize=auto;html=1;entryX=1;entryY=0.5;entryDx=0;entryDy=0;" edge="1" parent="1">
          <mxGeometry relative="1" as="geometry">
            <Array as="points">
              <mxPoint x="-82.5" y="185.63" />
              <mxPoint x="-82.5" y="171.63" />
              <mxPoint x="-212.5" y="171.63" />
              <mxPoint x="-212.5" y="172.63" />
            </Array>
            <mxPoint x="-120" y="320" as="sourcePoint" />
            <mxPoint x="-242.4999999999999" y="172.76" as="targetPoint" />
          </mxGeometry>
        </mxCell>
        <mxCell id="5j0TbUP-GXuLhpRAQQWD-98" value=":hasActivationFunction" style="edgeLabel;html=1;align=center;verticalAlign=middle;resizable=0;points=[];" vertex="1" connectable="0" parent="5j0TbUP-GXuLhpRAQQWD-97">
          <mxGeometry x="0.41" relative="1" as="geometry">
            <mxPoint x="-4" as="offset" />
          </mxGeometry>
        </mxCell>
        <mxCell id="5j0TbUP-GXuLhpRAQQWD-99" value=":hasHardwareReference" style="edgeStyle=orthogonalEdgeStyle;rounded=0;orthogonalLoop=1;jettySize=auto;html=1;entryX=0;entryY=0.5;entryDx=0;entryDy=0;fontSize=15;" edge="1" parent="1" target="5j0TbUP-GXuLhpRAQQWD-100">
          <mxGeometry x="0.12" relative="1" as="geometry">
            <mxPoint as="offset" />
            <mxPoint x="60" y="330" as="sourcePoint" />
            <Array as="points">
              <mxPoint x="60" y="351" />
            </Array>
          </mxGeometry>
        </mxCell>
        <mxCell id="5j0TbUP-GXuLhpRAQQWD-100" value=":Hardware" style="rounded=1;whiteSpace=wrap;html=1;fontSize=15;" vertex="1" parent="1">
          <mxGeometry x="269" y="336.13" width="80" height="30" as="geometry" />
        </mxCell>
        <mxCell id="5j0TbUP-GXuLhpRAQQWD-101" value=":hasHardwareInfo" style="endArrow=classic;html=1;rounded=0;entryX=0.5;entryY=1;entryDx=0;entryDy=0;exitX=0.5;exitY=0;exitDx=0;exitDy=0;" edge="1" parent="1" target="5j0TbUP-GXuLhpRAQQWD-103" source="5j0TbUP-GXuLhpRAQQWD-100">
          <mxGeometry width="50" height="50" relative="1" as="geometry">
            <mxPoint x="335" y="330" as="sourcePoint" />
            <mxPoint x="465" y="317.38" as="targetPoint" />
          </mxGeometry>
        </mxCell>
        <mxCell id="5j0TbUP-GXuLhpRAQQWD-103" value="schema:Text" style="rounded=1;whiteSpace=wrap;html=1;fontSize=15;" vertex="1" parent="1">
          <mxGeometry x="261.5" y="270" width="95" height="30" as="geometry" />
        </mxCell>
        <mxCell id="5j0TbUP-GXuLhpRAQQWD-105" value="&lt;div&gt;:Camera&lt;/div&gt;" style="rounded=1;whiteSpace=wrap;html=1;fontSize=15;" vertex="1" parent="1">
          <mxGeometry x="395" y="224.5" width="70" height="30" as="geometry" />
        </mxCell>
        <mxCell id="5j0TbUP-GXuLhpRAQQWD-107" value=":Microphone" style="rounded=1;whiteSpace=wrap;html=1;fontSize=15;" vertex="1" parent="1">
          <mxGeometry x="395" y="262.88" width="100" height="30" as="geometry" />
        </mxCell>
        <mxCell id="5j0TbUP-GXuLhpRAQQWD-109" value=":Accelerometer" style="rounded=1;whiteSpace=wrap;html=1;fontSize=15;" vertex="1" parent="1">
          <mxGeometry x="395" y="300" width="110" height="30" as="geometry" />
        </mxCell>
        <mxCell id="5j0TbUP-GXuLhpRAQQWD-110" style="edgeStyle=orthogonalEdgeStyle;rounded=0;orthogonalLoop=1;jettySize=auto;html=1;exitX=0;exitY=0.5;exitDx=0;exitDy=0;endArrow=block;endFill=1;entryX=1;entryY=0.5;entryDx=0;entryDy=0;" edge="1" parent="1" source="5j0TbUP-GXuLhpRAQQWD-111" target="5j0TbUP-GXuLhpRAQQWD-100">
          <mxGeometry relative="1" as="geometry">
            <mxPoint x="600" y="194.37" as="targetPoint" />
          </mxGeometry>
        </mxCell>
        <mxCell id="5j0TbUP-GXuLhpRAQQWD-111" value="......" style="rounded=1;whiteSpace=wrap;html=1;fontSize=15;" vertex="1" parent="1">
          <mxGeometry x="395" y="336.13" width="55" height="30" as="geometry" />
        </mxCell>
        <mxCell id="5j0TbUP-GXuLhpRAQQWD-112" value=":hasMetric" style="edgeStyle=orthogonalEdgeStyle;rounded=0;orthogonalLoop=1;jettySize=auto;html=1;exitX=0.5;exitY=1;exitDx=0;exitDy=0;entryX=0;entryY=0.5;entryDx=0;entryDy=0;fontSize=15;" edge="1" parent="1" target="5j0TbUP-GXuLhpRAQQWD-113" source="5j0TbUP-GXuLhpRAQQWD-15">
          <mxGeometry x="0.777" relative="1" as="geometry">
            <mxPoint x="-1" as="offset" />
            <mxPoint x="40.00000000000023" y="878.3800000000001" as="sourcePoint" />
            <Array as="points">
              <mxPoint x="60" y="834" />
            </Array>
          </mxGeometry>
        </mxCell>
        <mxCell id="5j0TbUP-GXuLhpRAQQWD-113" value=":Metric" style="rounded=1;whiteSpace=wrap;html=1;fontSize=15;" vertex="1" parent="1">
          <mxGeometry x="247" y="818.62" width="90" height="30" as="geometry" />
        </mxCell>
        <mxCell id="5j0TbUP-GXuLhpRAQQWD-114" value=":hasMetricValue" style="endArrow=classic;html=1;rounded=0;entryX=0.5;entryY=1;entryDx=0;entryDy=0;exitX=0.5;exitY=0;exitDx=0;exitDy=0;" edge="1" parent="1" source="5j0TbUP-GXuLhpRAQQWD-113" target="5j0TbUP-GXuLhpRAQQWD-115">
          <mxGeometry width="50" height="50" relative="1" as="geometry">
            <mxPoint x="292" y="812.49" as="sourcePoint" />
            <mxPoint x="422" y="799.87" as="targetPoint" />
          </mxGeometry>
        </mxCell>
        <mxCell id="5j0TbUP-GXuLhpRAQQWD-115" value="schema:Number" style="rounded=1;whiteSpace=wrap;html=1;fontSize=15;" vertex="1" parent="1">
          <mxGeometry x="230" y="740.74" width="125" height="30" as="geometry" />
        </mxCell>
        <mxCell id="5j0TbUP-GXuLhpRAQQWD-116" value=":top_1_accuracy" style="rounded=1;whiteSpace=wrap;html=1;fontSize=15;" vertex="1" parent="1">
          <mxGeometry x="417" y="727.87" width="120" height="30" as="geometry" />
        </mxCell>
        <mxCell id="5j0TbUP-GXuLhpRAQQWD-117" value=":top_5_accuracy" style="rounded=1;whiteSpace=wrap;html=1;fontSize=15;" vertex="1" parent="1">
          <mxGeometry x="417" y="762.87" width="120" height="30" as="geometry" />
        </mxCell>
        <mxCell id="5j0TbUP-GXuLhpRAQQWD-119" style="edgeStyle=orthogonalEdgeStyle;rounded=0;orthogonalLoop=1;jettySize=auto;html=1;exitX=0;exitY=0.5;exitDx=0;exitDy=0;endArrow=block;endFill=1;entryX=1;entryY=0.5;entryDx=0;entryDy=0;" edge="1" parent="1" source="5j0TbUP-GXuLhpRAQQWD-120" target="5j0TbUP-GXuLhpRAQQWD-113">
          <mxGeometry relative="1" as="geometry">
            <mxPoint x="557" y="676.86" as="targetPoint" />
          </mxGeometry>
        </mxCell>
        <mxCell id="5j0TbUP-GXuLhpRAQQWD-120" value="......" style="rounded=1;whiteSpace=wrap;html=1;fontSize=15;" vertex="1" parent="1">
          <mxGeometry x="417" y="802.49" width="120" height="30" as="geometry" />
        </mxCell>
        <mxCell id="5j0TbUP-GXuLhpRAQQWD-121" value=":hasID" style="edgeStyle=orthogonalEdgeStyle;rounded=0;orthogonalLoop=1;jettySize=auto;html=1;exitX=0.5;exitY=1;exitDx=0;exitDy=0;entryX=1;entryY=0.5;entryDx=0;entryDy=0;fontSize=15;" edge="1" parent="1" target="5j0TbUP-GXuLhpRAQQWD-122" source="5j0TbUP-GXuLhpRAQQWD-15">
          <mxGeometry x="0.6259" relative="1" as="geometry">
            <mxPoint x="70" y="750" as="targetPoint" />
            <mxPoint as="offset" />
            <mxPoint x="70" y="340" as="sourcePoint" />
            <Array as="points">
              <mxPoint x="60" y="594" />
            </Array>
          </mxGeometry>
        </mxCell>
        <mxCell id="5j0TbUP-GXuLhpRAQQWD-122" value="schema:Text" style="rounded=1;whiteSpace=wrap;html=1;fontSize=15;" vertex="1" parent="1">
          <mxGeometry x="-150" y="579.25" width="100" height="30" as="geometry" />
        </mxCell>
        <mxCell id="5j0TbUP-GXuLhpRAQQWD-123" value=":creator" style="edgeStyle=orthogonalEdgeStyle;rounded=0;orthogonalLoop=1;jettySize=auto;html=1;exitX=0.5;exitY=1;exitDx=0;exitDy=0;entryX=0;entryY=0.5;entryDx=0;entryDy=0;fontSize=15;" edge="1" parent="1" target="5j0TbUP-GXuLhpRAQQWD-124" source="5j0TbUP-GXuLhpRAQQWD-15">
          <mxGeometry x="0.5406" relative="1" as="geometry">
            <mxPoint as="offset" />
            <mxPoint x="55" y="360.5" as="sourcePoint" />
            <Array as="points">
              <mxPoint x="60" y="538" />
            </Array>
          </mxGeometry>
        </mxCell>
        <mxCell id="5j0TbUP-GXuLhpRAQQWD-124" value="schema:Text" style="rounded=1;whiteSpace=wrap;html=1;fontSize=15;" vertex="1" parent="1">
          <mxGeometry x="200" y="523.25" width="90" height="30" as="geometry" />
        </mxCell>
        <mxCell id="5j0TbUP-GXuLhpRAQQWD-125" value=":location" style="edgeStyle=orthogonalEdgeStyle;rounded=0;orthogonalLoop=1;jettySize=auto;html=1;exitX=0.5;exitY=1;exitDx=0;exitDy=0;entryX=1;entryY=0.5;entryDx=0;entryDy=0;fontSize=15;" edge="1" parent="1" target="5j0TbUP-GXuLhpRAQQWD-126">
          <mxGeometry x="0.6259" relative="1" as="geometry">
            <mxPoint x="60" y="790" as="targetPoint" />
            <mxPoint as="offset" />
            <mxPoint x="60" y="380" as="sourcePoint" />
            <Array as="points">
              <mxPoint x="60" y="455" />
            </Array>
          </mxGeometry>
        </mxCell>
        <mxCell id="5j0TbUP-GXuLhpRAQQWD-126" value="schema:url" style="rounded=1;whiteSpace=wrap;html=1;fontSize=15;" vertex="1" parent="1">
          <mxGeometry x="-150" y="440" width="100" height="30" as="geometry" />
        </mxCell>
        <mxCell id="5j0TbUP-GXuLhpRAQQWD-127" value=":reference" style="edgeStyle=orthogonalEdgeStyle;rounded=0;orthogonalLoop=1;jettySize=auto;html=1;exitX=0.5;exitY=1;exitDx=0;exitDy=0;entryX=1;entryY=0.5;entryDx=0;entryDy=0;fontSize=15;" edge="1" parent="1" target="5j0TbUP-GXuLhpRAQQWD-128">
          <mxGeometry x="0.6138" relative="1" as="geometry">
            <mxPoint x="60" y="830.5" as="targetPoint" />
            <mxPoint as="offset" />
            <mxPoint x="60" y="420.5" as="sourcePoint" />
            <Array as="points">
              <mxPoint x="60" y="635" />
            </Array>
          </mxGeometry>
        </mxCell>
        <mxCell id="5j0TbUP-GXuLhpRAQQWD-128" value="schema:url" style="rounded=1;whiteSpace=wrap;html=1;fontSize=15;" vertex="1" parent="1">
          <mxGeometry x="-150" y="620.13" width="100" height="30" as="geometry" />
        </mxCell>
        <mxCell id="5j0TbUP-GXuLhpRAQQWD-130" value="&lt;div&gt;:Category&lt;/div&gt;" style="rounded=1;whiteSpace=wrap;html=1;fontSize=15;" vertex="1" parent="1">
          <mxGeometry x="-210" y="780" width="120" height="30" as="geometry" />
        </mxCell>
        <mxCell id="5j0TbUP-GXuLhpRAQQWD-131" style="edgeStyle=orthogonalEdgeStyle;rounded=0;orthogonalLoop=1;jettySize=auto;html=1;exitX=1;exitY=0.5;exitDx=0;exitDy=0;entryX=0.5;entryY=1;entryDx=0;entryDy=0;endArrow=block;endFill=1;" edge="1" parent="1" source="5j0TbUP-GXuLhpRAQQWD-132" target="5j0TbUP-GXuLhpRAQQWD-130">
          <mxGeometry relative="1" as="geometry">
            <mxPoint x="-150" y="892.3699999999999" as="targetPoint" />
            <Array as="points">
              <mxPoint x="-150" y="838.5" />
            </Array>
          </mxGeometry>
        </mxCell>
        <mxCell id="5j0TbUP-GXuLhpRAQQWD-132" value=":Classification" style="rounded=1;whiteSpace=wrap;html=1;fontSize=15;" vertex="1" parent="1">
          <mxGeometry x="-392" y="772.4900000000001" width="120" height="30" as="geometry" />
        </mxCell>
        <mxCell id="5j0TbUP-GXuLhpRAQQWD-133" value="r" style="edgeStyle=orthogonalEdgeStyle;rounded=0;orthogonalLoop=1;jettySize=auto;html=1;exitX=1;exitY=0.5;exitDx=0;exitDy=0;endArrow=block;endFill=1;" edge="1" parent="1" source="5j0TbUP-GXuLhpRAQQWD-134">
          <mxGeometry relative="1" as="geometry">
            <mxPoint x="-150" y="810" as="targetPoint" />
            <Array as="points">
              <mxPoint x="-150" y="873.5" />
            </Array>
          </mxGeometry>
        </mxCell>
        <mxCell id="5j0TbUP-GXuLhpRAQQWD-134" value=":ObjectDetection" style="rounded=1;whiteSpace=wrap;html=1;fontSize=15;" vertex="1" parent="1">
          <mxGeometry x="-392" y="810.0000000000001" width="120" height="30" as="geometry" />
        </mxCell>
        <mxCell id="5j0TbUP-GXuLhpRAQQWD-135" style="edgeStyle=orthogonalEdgeStyle;rounded=0;orthogonalLoop=1;jettySize=auto;html=1;exitX=1;exitY=0.5;exitDx=0;exitDy=0;endArrow=block;endFill=1;" edge="1" parent="1" source="5j0TbUP-GXuLhpRAQQWD-136">
          <mxGeometry relative="1" as="geometry">
            <mxPoint x="-150" y="810.5" as="targetPoint" />
            <Array as="points">
              <mxPoint x="-150" y="908.5" />
            </Array>
          </mxGeometry>
        </mxCell>
        <mxCell id="5j0TbUP-GXuLhpRAQQWD-136" value=":FeatureExtraction" style="rounded=1;whiteSpace=wrap;html=1;fontSize=15;" vertex="1" parent="1">
          <mxGeometry x="-402" y="848.6200000000001" width="130" height="30" as="geometry" />
        </mxCell>
        <mxCell id="5j0TbUP-GXuLhpRAQQWD-137" style="edgeStyle=orthogonalEdgeStyle;rounded=0;orthogonalLoop=1;jettySize=auto;html=1;exitX=1;exitY=0.5;exitDx=0;exitDy=0;endArrow=block;endFill=1;entryX=0.5;entryY=1;entryDx=0;entryDy=0;" edge="1" parent="1" source="5j0TbUP-GXuLhpRAQQWD-138" target="5j0TbUP-GXuLhpRAQQWD-130">
          <mxGeometry relative="1" as="geometry">
            <mxPoint x="-150" y="892.3699999999999" as="targetPoint" />
          </mxGeometry>
        </mxCell>
        <mxCell id="5j0TbUP-GXuLhpRAQQWD-138" value="......" style="rounded=1;whiteSpace=wrap;html=1;fontSize=15;" vertex="1" parent="1">
          <mxGeometry x="-392" y="930" width="120" height="30" as="geometry" />
        </mxCell>
        <mxCell id="5j0TbUP-GXuLhpRAQQWD-139" value=":hasCategory" style="edgeStyle=orthogonalEdgeStyle;rounded=0;orthogonalLoop=1;jettySize=auto;html=1;entryX=1;entryY=0.5;entryDx=0;entryDy=0;fontSize=15;exitX=0.5;exitY=1;exitDx=0;exitDy=0;" edge="1" parent="1" source="5j0TbUP-GXuLhpRAQQWD-15" target="5j0TbUP-GXuLhpRAQQWD-130">
          <mxGeometry x="0.7724" relative="1" as="geometry">
            <mxPoint as="offset" />
            <mxPoint x="60" y="340" as="sourcePoint" />
            <Array as="points">
              <mxPoint x="60" y="795" />
            </Array>
            <mxPoint x="175" y="935.0000000000001" as="targetPoint" />
          </mxGeometry>
        </mxCell>
        <mxCell id="5j0TbUP-GXuLhpRAQQWD-140" value=":Unsupervised" style="rounded=1;whiteSpace=wrap;html=1;fontSize=15;" vertex="1" parent="1">
          <mxGeometry x="-392" y="890.0000000000001" width="120" height="30" as="geometry" />
        </mxCell>
        <mxCell id="5j0TbUP-GXuLhpRAQQWD-144" style="edgeStyle=orthogonalEdgeStyle;rounded=0;orthogonalLoop=1;jettySize=auto;html=1;exitX=0.003;exitY=0.666;exitDx=0;exitDy=0;endArrow=block;endFill=1;entryX=1;entryY=0.5;entryDx=0;entryDy=0;exitPerimeter=0;" edge="1" parent="1" source="5j0TbUP-GXuLhpRAQQWD-109" target="5j0TbUP-GXuLhpRAQQWD-100">
          <mxGeometry relative="1" as="geometry">
            <mxPoint x="359" y="361.13000000000005" as="targetPoint" />
            <mxPoint x="405" y="361.13000000000005" as="sourcePoint" />
            <Array as="points">
              <mxPoint x="380" y="320" />
              <mxPoint x="380" y="351" />
            </Array>
          </mxGeometry>
        </mxCell>
        <mxCell id="5j0TbUP-GXuLhpRAQQWD-146" style="edgeStyle=orthogonalEdgeStyle;rounded=0;orthogonalLoop=1;jettySize=auto;html=1;endArrow=block;endFill=1;entryX=1;entryY=0.5;entryDx=0;entryDy=0;exitX=-0.002;exitY=0.534;exitDx=0;exitDy=0;exitPerimeter=0;" edge="1" parent="1" source="5j0TbUP-GXuLhpRAQQWD-107" target="5j0TbUP-GXuLhpRAQQWD-100">
          <mxGeometry relative="1" as="geometry">
            <mxPoint x="359" y="361.13" as="targetPoint" />
            <mxPoint x="390" y="290" as="sourcePoint" />
            <Array as="points">
              <mxPoint x="380" y="279" />
              <mxPoint x="380" y="351" />
            </Array>
          </mxGeometry>
        </mxCell>
        <mxCell id="5j0TbUP-GXuLhpRAQQWD-147" style="edgeStyle=orthogonalEdgeStyle;rounded=0;orthogonalLoop=1;jettySize=auto;html=1;endArrow=block;endFill=1;entryX=1;entryY=0.5;entryDx=0;entryDy=0;exitX=0;exitY=0.5;exitDx=0;exitDy=0;" edge="1" parent="1" source="5j0TbUP-GXuLhpRAQQWD-105" target="5j0TbUP-GXuLhpRAQQWD-100">
          <mxGeometry relative="1" as="geometry">
            <mxPoint x="359" y="361.13" as="targetPoint" />
            <mxPoint x="404.79999999999995" y="288.8999999999999" as="sourcePoint" />
            <Array as="points">
              <mxPoint x="380" y="240" />
              <mxPoint x="380" y="351" />
              <mxPoint x="359" y="351" />
            </Array>
          </mxGeometry>
        </mxCell>
      </root>
    </mxGraphModel>
  </diagram>
</mxfile>
